<?xml version="1.0" encoding="UTF-8"?>
<!DOCTYPE svg PUBLIC "-//W3C//DTD SVG 1.1//EN" "http://www.w3.org/Graphics/SVG/1.1/DTD/svg11.dtd">
<!-- Creator: CorelDRAW 2019 (64-Bit) -->
<svg xmlns="http://www.w3.org/2000/svg" xml:space="preserve" width="200px" height="283px" version="1.1" style="shape-rendering:geometricPrecision; text-rendering:geometricPrecision; image-rendering:optimizeQuality; fill-rule:evenodd; clip-rule:evenodd"
viewBox="0 0 200 282.86"
 xmlns:xlink="http://www.w3.org/1999/xlink">
 <defs>
  <style type="text/css">
   <![CDATA[
    .str0 {stroke:#2B2A29;stroke-width:0.95;stroke-miterlimit:22.9256}
    .fil0 {fill:none}
   ]]>
  </style>
 </defs>
 <g id="Layer_x0020_1">
  <metadata id="CorelCorpID_0Corel-Layer"/>
  <g id="_2602917065696">
   <line class="fil0 str0" x1="100.36" y1="179.73" x2="100.36" y2= "118.44" />
   <line class="fil0 str0" x1="100.36" y1="179.73" x2="100.36" y2= "118.44" />
   <polyline class="fil0 str0" points="100.36,43.83 69.19,110.98 100.36,110.98 "/>
   <polyline class="fil0 str0" points="100.36,43.83 131.53,110.98 100.36,110.98 "/>
   <line class="fil0 str0" x1="100.36" y1="83.24" x2="82.07" y2= "83.24" />
   <line class="fil0 str0" x1="100.36" y1="83.24" x2="118.65" y2= "83.24" />
   <line class="fil0 str0" x1="100.36" y1="69.43" x2="88.48" y2= "69.43" />
   <line class="fil0 str0" x1="100.36" y1="69.43" x2="112.24" y2= "69.43" />
   <line class="fil0 str0" x1="100.36" y1="55.79" x2="94.81" y2= "55.79" />
   <line class="fil0 str0" x1="100.36" y1="55.79" x2="105.91" y2= "55.79" />
   <line class="fil0 str0" x1="100.36" y1="97.25" x2="75.56" y2= "97.25" />
   <line class="fil0 str0" x1="100.36" y1="97.25" x2="125.16" y2= "97.25" />
   <line class="fil0 str0" x1="100.36" y1="69.43" x2="82.09" y2= "110.42" />
   <line class="fil0 str0" x1="100.36" y1="69.43" x2="118.63" y2= "110.42" />
   <line class="fil0 str0" x1="100.12" y1="97.25" x2="93.75" y2= "110.98" />
   <line class="fil0 str0" x1="100.6" y1="97.25" x2="106.98" y2= "110.98" />
   <line class="fil0 str0" x1="93.75" y1="110.98" x2="81.57" y2= "84.31" />
   <line class="fil0 str0" x1="106.98" y1="110.98" x2="119.15" y2= "84.31" />
   <line class="fil0 str0" x1="82.09" y1="110.42" x2="75.83" y2= "96.69" />
   <line class="fil0 str0" x1="118.63" y1="110.42" x2="124.89" y2= "96.69" />
   <line class="fil0 str0" x1="100.12" y1="97.25" x2="87.95" y2= "70.57" />
   <line class="fil0 str0" x1="100.6" y1="97.25" x2="112.77" y2= "70.57" />
   <line class="fil0 str0" x1="100.36" y1="69.43" x2="94.81" y2= "55.79" />
   <line class="fil0 str0" x1="100.36" y1="69.43" x2="105.91" y2= "55.79" />
   <polygon class="fil0 str0" points="39.88,126 100.36,118.44 53.19,108.57 "/>
   <polygon class="fil0 str0" points="160.84,126 100.36,118.44 147.53,108.57 "/>
   <polyline class="fil0 str0" points="39.88,126 56.92,139.21 100.36,118.44 58.73,143.14 60.14,165.21 100.36,118.44 81.82,163.4 60.14,165.21 "/>
   <polyline class="fil0 str0" points="160.84,126 143.8,139.21 100.36,118.44 141.99,143.14 140.58,165.21 100.36,118.44 118.91,163.4 140.58,165.21 "/>
   <polyline class="fil0 str0" points="100.36,118.44 85.44,165.11 100.36,179.73 "/>
   <polyline class="fil0 str0" points="100.36,118.44 115.28,165.11 100.36,179.73 "/>
  </g>
 </g>
</svg>
