<?xml version="1.0" encoding="UTF-8"?>
<!DOCTYPE svg PUBLIC "-//W3C//DTD SVG 1.1//EN" "http://www.w3.org/Graphics/SVG/1.1/DTD/svg11.dtd">
<!-- Creator: CorelDRAW 2019 (64-Bit) -->
<svg xmlns="http://www.w3.org/2000/svg" xml:space="preserve" width="1200px" height="1600px" version="1.1" style="shape-rendering:geometricPrecision; text-rendering:geometricPrecision; image-rendering:optimizeQuality; fill-rule:evenodd; clip-rule:evenodd"
viewBox="0 0 1000 1600"
 xmlns:xlink="http://www.w3.org/1999/xlink">
 <defs>
  <style type="text/css">
   <![CDATA[
    .str0 {stroke:#878787;fill-opacity:0.8; stroke-opacity: 0.2;stroke-width:16;stroke-miterlimit:22.9256}
    .fil0 {fill:none}
   ]]>
  </style>
 </defs>
 <g id="Layer_x0020_1">
  <metadata id="CorelCorpID_0Corel-Layer"/>
  <g id="_2445737269600">
   <line class="fil0 str0" x1="601.09" y1="1446.82" x2="601.09" y2= "860.13" />
   <line class="fil0 str0" x1="601.09" y1="1446.82" x2="601.09" y2= "860.13" />
   <polyline class="fil0 str0" points="601.09,145.82 302.68,788.72 601.09,788.72 "/>
   <polyline class="fil0 str0" points="601.09,145.82 899.5,788.72 601.09,788.72 "/>
   <line class="fil0 str0" x1="601.09" y1="523.12" x2="425.96" y2= "523.12" />
   <line class="fil0 str0" x1="601.09" y1="523.12" x2="776.22" y2= "523.12" />
   <line class="fil0 str0" x1="601.09" y1="390.92" x2="487.33" y2= "390.92" />
   <line class="fil0 str0" x1="601.09" y1="390.92" x2="714.86" y2= "390.92" />
   <line class="fil0 str0" x1="601.09" y1="260.34" x2="547.93" y2= "260.34" />
   <line class="fil0 str0" x1="601.09" y1="260.34" x2="654.25" y2= "260.34" />
   <line class="fil0 str0" x1="601.09" y1="657.24" x2="363.71" y2= "657.24" />
   <line class="fil0 str0" x1="601.09" y1="657.24" x2="838.48" y2= "657.24" />
   <line class="fil0 str0" x1="601.09" y1="390.92" x2="426.2" y2= "783.27" />
   <line class="fil0 str0" x1="601.09" y1="390.92" x2="775.99" y2= "783.27" />
   <line class="fil0 str0" x1="598.78" y1="657.24" x2="537.76" y2= "788.72" />
   <line class="fil0 str0" x1="603.4" y1="657.24" x2="664.42" y2= "788.72" />
   <line class="fil0 str0" x1="537.76" y1="788.72" x2="421.23" y2= "533.32" />
   <line class="fil0 str0" x1="664.42" y1="788.72" x2="780.96" y2= "533.32" />
   <line class="fil0 str0" x1="426.2" y1="783.27" x2="366.22" y2= "651.83" />
   <line class="fil0 str0" x1="775.99" y1="783.27" x2="835.96" y2= "651.83" />
   <line class="fil0 str0" x1="598.78" y1="657.24" x2="482.25" y2= "401.85" />
   <line class="fil0 str0" x1="603.4" y1="657.24" x2="719.93" y2= "401.85" />
   <line class="fil0 str0" x1="601.09" y1="390.92" x2="547.93" y2= "260.34" />
   <line class="fil0 str0" x1="601.09" y1="390.92" x2="654.25" y2= "260.34" />
   <polygon class="fil0 str0" points="22.12,932.5 601.09,860.13 149.5,765.56 "/>
   <polygon class="fil0 str0" points="1180.06,932.5 601.09,860.13 1052.69,765.56 "/>
   <polyline class="fil0 str0" points="22.12,932.5 185.2,1058.91 601.09,860.13 202.57,1096.54 216.08,1307.87 601.09,860.13 423.54,1290.5 216.08,1307.87 "/>
   <polyline class="fil0 str0" points="1180.06,932.5 1016.98,1058.91 601.09,860.13 999.61,1096.54 986.11,1307.87 601.09,860.13 778.64,1290.5 986.11,1307.87 "/>
   <polyline class="fil0 str0" points="601.09,860.13 458.28,1306.9 601.09,1446.82 "/>
   <polyline class="fil0 str0" points="601.09,860.13 743.9,1306.9 601.09,1446.82 "/>
  </g>
 </g>
</svg>
